<?xml version="1.0" encoding="utf-8"?>
<!-- Generator: Adobe Illustrator 27.5.0, SVG Export Plug-In . SVG Version: 6.00 Build 0)  -->
<svg version="1.1" id="Layer_1" xmlns="http://www.w3.org/2000/svg" xmlns:xlink="http://www.w3.org/1999/xlink" x="0px" y="0px"
	 viewBox="0 0 295 263" style="enable-background:new 0 0 295 263;" xml:space="preserve">
<style type="text/css">
	.st0{fill:#10B981;}
	.st1{fill:#FFFFFF;stroke:#FFFFFF;stroke-width:9;stroke-miterlimit:10;}
</style>
<g>
	<rect x="0.5" class="st0" width="295" height="263"/>
</g>
<path class="st1" d="M225.4,202.2c0,8.5,0,17.2,0,25.7c0,0.2,0,0.3,0,0.5c0.1,1.7,0.4,2,1.8,1.6c2.3-0.7,4.5-1.5,6.7-2.3
	c3.5-1.3,6.6-3.1,9.6-5.3c3.9-2.8,7.2-6.1,10.2-9.8c2.7-3.3,5-6.9,6.9-10.7c3.9-7.5,5.8-15.6,5.9-24.2c0-4.7,0.2-9.4-0.9-14
	c-0.7-3.1-1.8-6.1-3.2-9c-2.1-4.6-4.9-8.6-7.7-12.7c-2.8-3.9-5.5-7.7-8.3-11.6c-5.1-7.2-10.2-14.5-15.2-21.7
	c-3.7-5.1-7.3-10.2-11-15.3c-5.8-8.2-11.6-16.3-17.3-24.4c-3.7-5.2-7.3-10.5-11-15.7c-3.3-4.6-6.5-9.3-9.9-13.8
	c-2.8-3.8-6.3-6.5-10.6-8.2c-1.7-0.6-3.3-1.1-5-1.3c-4.9-0.5-9.6-0.3-14.1,1.9c-3.1,1.6-5.9,3.9-8.1,6.7c-3.4,4.5-6.6,9.1-9.9,13.7
	c-3.4,4.8-6.9,9.5-10.3,14.3c-3.7,5.1-7.2,10.3-10.9,15.4c-3.9,5.6-8,11.1-11.9,16.6c-5,7.1-9.9,14-15,21.1c-3.6,5-7.2,10-10.8,15.1
	c-3.6,5.1-7.2,10.3-10.6,15.5c-3.2,4.7-4.2,9.9-3.3,15.6c0.3,1.7,0.2,3.4-1.1,4.6c-1.1,1-2.4,1.4-3.7,0.8c-1.4-0.5-2.4-1.6-2.5-3.1
	c-0.3-4.1-0.4-8.3,0.5-12.4c0.8-4.6,2.9-8.4,5.3-12c2.6-3.9,5.2-7.7,7.9-11.5c4.8-6.8,9.5-13.6,14.3-20.3c2.5-3.6,5-7.2,7.5-10.6
	C93,96.6,96.5,91.8,100,87c4.2-6,8.4-12,12.7-18.1c2.5-3.6,5.1-7.1,7.6-10.6c3.9-5.6,7.9-11.4,11.9-16.9c2.8-3.7,5.4-7.4,8.5-10.7
	c3.6-3.8,8-6.2,12.8-7.7c4.1-1.3,8.3-2,12.6-1.4s8.5,1.9,12.4,4.2c3.2,1.9,6.1,4.5,8.5,7.5c3.1,3.9,6.1,8,9,12
	c2.4,3.3,4.7,6.7,7.1,10c3.4,4.8,6.8,9.5,10.2,14.4c2.5,3.6,5,7.1,7.6,10.6c3.2,4.5,6.4,9.1,9.6,13.6c4.1,5.9,8.4,11.7,12.5,17.6
	c2.4,3.3,4.6,6.7,7,10.1c3.1,4.4,6.2,8.8,9.4,13.2c1.3,1.8,2.4,3.8,3.6,5.6c1.5,2.2,2.9,4.4,4.3,6.7c2.4,4,4,8.4,5.2,13
	c0.6,2.2,0.6,4.4,1.1,6.6c1,4.7,0.7,9.5,0.4,14.1c-0.4,5-1.1,9.8-2.8,14.5c-1.1,2.9-2,6-3.4,8.8c-3.6,7.6-8.4,14-14.5,19.5
	c-5.2,4.8-11.1,8.4-17.3,11.2c-1.9,0.9-4,1.5-6.1,2.1c-5.5,1.7-11.1,2.4-16.7,3.1c-2.4,0.3-4.8,0.4-7.2,0.4c-4.7,0-9.4,0-14-0.3
	c-3.9-0.3-7.6-0.9-11.5-1.4c-2.4-0.3-4.8-0.6-7.1-1c-6.8-1.3-13.6-2.8-20.5-3.9c-5-0.9-9.9-1.7-14.9-2.4c-3.6-0.6-7.1-1-10.6-1.4
	c-11.6-1.3-23.2-1.6-34.9-1c-5.4,0.3-10.9,0.5-16.2,1.1c-5,0.6-10.1,1.5-15.1,2.3c-3.6,0.6-7.2,1.2-10.7,2.1
	c-5.1,1.3-10.3,2.8-15.4,4.1c-2.8,0.8-5.7,1.8-8.6,2.7c-2,0.6-3.1,0.3-4-1.2c-0.8-1.3-0.5-3.6,0.7-4.3c1.1-0.6,2.3-1.3,3.5-1.7
	c4.5-1.4,9-2.8,13.5-4c4.6-1.2,9.2-2.4,13.8-3.4c6-1.2,11.8-2.5,17.8-3.3c6.3-0.9,12.8-1.4,19.2-2c2.1-0.2,4.2-0.4,6.3-0.7
	c0.5-0.1,1.1-0.6,1.2-1c0.6-2.4,1.2-4.8,1.3-7.2c0.3-8.8,0.3-17.5,0.4-26.3c0-3.2,0.1-6.4,0.2-9.6c0-0.8-0.5-1.2-1-1.1
	c-0.6,0.2-1.1,0.6-1.6,1c-1,1.2-1.8,2.6-2.8,3.9c-1.7,2.2-4,1.7-5.2,0.5c-1.3-1.4-1.3-3.9,0.1-5.8c2.1-2.7,4.2-5.3,6.3-8
	c2.4-3.1,4.8-6.2,7.2-9.3c3.7-4.7,7.3-9.4,10.9-14.1c2.8-3.7,5.6-7.4,8.4-11.1c3.1-4,6.2-8.1,9.5-12.1c1.7-2.2,3.4-4.4,5.1-6.6
	c3.5-4.5,7.1-9,10.6-13.4c1.7-2.2,3.6-4.4,5.9-6.1c4.2-3,8.7-3.9,13.7-2.6c4.7,1.3,8.2,4.5,11.2,8.4c2,2.7,4,5.2,6.1,7.9
	c4.5,5.9,9,11.7,13.6,17.6c4.3,5.6,8.6,11.3,12.9,16.9c6.7,8.7,13.4,17.5,20.1,26.2c1.2,1.6,2.6,3,3.7,4.6c0.7,1,1.3,2.1,1.7,3.3
	c0.6,1.5,0.3,2.8-0.7,3.9c-0.9,1.1-2.6,1.1-3.9,0.6c-1.3-0.6-1.8-1.7-2.7-2.7c-0.6-0.8-1.3-1.8-1.9-2.6c-0.4-0.4-0.9-0.6-1.4-0.8
	c-0.2,0.5-0.4,1-0.4,1.5C225.3,184.9,225.4,193.5,225.4,202.2L225.4,202.2z M218.3,197.9L218.3,197.9c0.1-10.2,0-20.3,0.1-30.5
	c0-2.3-0.8-3.9-2-5.5c-2.9-3.8-6.1-7.4-9-11.3c-3.8-4.8-7.4-9.7-11.1-14.6c-3.9-5.1-7.9-10.2-11.7-15.3c-3.7-4.9-7.3-9.7-10.9-14.5
	c-1.7-2.2-3.4-4.5-5.7-6.1c-2.2-1.5-4.6-1.4-7-1.1c-1.4,0.1-2.6,0.6-3.5,1.6c-2.4,2.5-4.9,5-7.1,7.7c-3.7,4.6-7.2,9.5-10.8,14.1
	c-4.9,6.3-9.7,12.6-14.6,18.9c-2.8,3.7-5.8,7.2-8.6,10.8c-2,2.6-4,5.3-6.1,7.9c-3.1,3.9-3.1,3.9-3.1,9c-0.1,12.6-0.2,25.1-0.4,37.7
	c-0.1,3.9-0.6,7.7-0.8,11.6c-0.1,1.3,0.4,1.9,1.6,2c3.3,0.3,6.7,0.6,10,0.7c2.4,0.2,4.7,0.2,7.1,0.5c5.1,0.6,10.2,1.4,15.3,2
	c1.3,0.2,1.7-0.3,1.8-1.7c0.1-1.7,0.1-3.3,0.1-5c0.1-9.8,0.1-19.6,0.1-29.4c0-3.1,0.6-6.1,1.8-9c3-7.7,8.4-12.1,15.9-13.2
	c4.9-0.7,9.5,0.2,13.9,3c4,2.7,6.9,6.3,8.6,11c1.5,4,2,8.4,2,12.8c0,12.3,0,24.5,0,36.8c0,2.4,0.8,2.9,2.6,3
	c4.3,0.3,8.6,0.6,12.9,0.6c5.5,0,11-0.5,16.5-0.6c1.9-0.1,2.2-0.5,2.2-2.6C218.3,218.8,218.3,208.4,218.3,197.9z M176.7,208.5
	L176.7,208.5c0-5.9,0.1-11.8,0-17.7c0-1.7-0.2-3.4-0.4-5.1c-0.6-3.9-2.4-7.1-5-9.6c-2.1-1.9-4.7-2.7-7.3-2.9c-5-0.5-9,1.4-12.1,5.8
	c-2,2.8-2.9,6.1-2.9,9.6c-0.1,10.7-0.1,21.4-0.1,32.1c0,0.9,0,1.9,0.1,2.8c0.1,1,0.6,1.6,1.5,1.8c0.5,0.1,0.8,0.2,1.3,0.3
	c4.8,0.9,9.5,1.8,14.3,2.8c2.8,0.6,5.6,1.1,8.4,1.5c2.4,0.4,2.5,0.3,2.5-2.5C176.7,221.2,176.7,214.9,176.7,208.5z"/>
</svg>
