<?xml version="1.0" encoding="utf-8"?>
<!-- Generator: Adobe Illustrator 27.5.0, SVG Export Plug-In . SVG Version: 6.00 Build 0)  -->
<svg version="1.1" id="Layer_1" xmlns="http://www.w3.org/2000/svg" xmlns:xlink="http://www.w3.org/1999/xlink" x="0px" y="0px"
	 viewBox="0 0 771.5 264" style="enable-background:new 0 0 771.5 264;" xml:space="preserve">
<style type="text/css">
	.st0{fill:#10B981;stroke:#10B981;stroke-width:9;stroke-miterlimit:10;}
	.st1{fill:#10B981;stroke:#10B981;stroke-miterlimit:10;}
</style>
<g>
	<path class="st0" d="M228.6,209.4c0,9.3,0,18.7,0,28c0,0.2,0,0.3,0,0.5c0.1,1.8,0.4,2.2,2,1.7c2.5-0.8,4.9-1.6,7.3-2.5
		c3.8-1.4,7.2-3.4,10.5-5.8c4.2-3,7.8-6.6,11.1-10.7c2.9-3.6,5.4-7.5,7.5-11.7c4.2-8.2,6.3-17,6.4-26.4c0-5.1,0.2-10.2-1-15.3
		c-0.8-3.4-2-6.7-3.5-9.8c-2.3-5-5.3-9.4-8.4-13.8c-3-4.2-6-8.4-9-12.6C246,123,240.5,115,235,107.1c-4-5.6-8-11.1-12-16.7
		c-6.3-8.9-12.6-17.8-18.9-26.6c-4-5.7-8-11.4-12-17.1c-3.6-5-7.1-10.1-10.8-15c-3.1-4.1-6.9-7.1-11.5-8.9c-1.8-0.7-3.6-1.2-5.5-1.4
		c-5.3-0.5-10.5-0.3-15.4,2.1c-3.4,1.7-6.4,4.2-8.8,7.3c-3.7,4.9-7.2,9.9-10.8,14.9c-3.7,5.2-7.5,10.4-11.2,15.6
		c-4,5.6-7.9,11.2-11.9,16.8c-4.3,6.1-8.7,12.1-13,18.1c-5.4,7.7-10.8,15.3-16.3,23c-3.9,5.5-7.9,10.9-11.8,16.5
		c-3.9,5.6-7.8,11.2-11.6,16.9c-3.5,5.1-4.6,10.8-3.6,17c0.3,1.9,0.2,3.7-1.2,5c-1.2,1.1-2.6,1.5-4,0.9c-1.5-0.5-2.6-1.7-2.7-3.4
		c-0.3-4.5-0.4-9,0.5-13.5c0.9-5,3.2-9.1,5.8-13.1c2.8-4.2,5.7-8.4,8.6-12.5c5.2-7.4,10.4-14.8,15.6-22.1c2.7-3.9,5.5-7.8,8.2-11.6
		c3.7-5.2,7.5-10.4,11.3-15.7c4.6-6.5,9.2-13.1,13.8-19.7c2.7-3.9,5.6-7.7,8.3-11.6c4.3-6.1,8.6-12.4,13-18.4c3-4,5.9-8.1,9.3-11.7
		c3.9-4.1,8.7-6.8,13.9-8.4c4.5-1.4,9-2.2,13.7-1.5c4.7,0.7,9.3,2.1,13.5,4.6c3.5,2.1,6.7,4.9,9.3,8.2c3.4,4.3,6.6,8.7,9.8,13.1
		c2.6,3.6,5.1,7.3,7.7,10.9c3.7,5.2,7.4,10.4,11.1,15.7c2.7,3.9,5.5,7.7,8.3,11.6c3.5,4.9,7,9.9,10.5,14.8
		c4.5,6.4,9.1,12.7,13.6,19.2c2.6,3.6,5,7.3,7.6,11c3.4,4.8,6.8,9.6,10.2,14.4c1.4,2,2.6,4.1,3.9,6.1c1.6,2.4,3.2,4.8,4.7,7.3
		c2.6,4.4,4.4,9.2,5.7,14.2c0.6,2.4,0.7,4.8,1.2,7.2c1.1,5.1,0.8,10.3,0.4,15.4c-0.4,5.4-1.2,10.7-3.1,15.8
		c-1.2,3.2-2.2,6.5-3.7,9.6c-3.9,8.3-9.2,15.3-15.8,21.2c-5.7,5.2-12.1,9.1-18.9,12.2c-2.1,1-4.4,1.6-6.6,2.3
		c-6,1.9-12.1,2.6-18.2,3.4c-2.6,0.3-5.2,0.4-7.8,0.4c-5.1,0-10.2,0-15.3-0.3c-4.2-0.3-8.3-1-12.5-1.5c-2.6-0.3-5.2-0.6-7.7-1.1
		c-7.4-1.4-14.8-3-22.3-4.3c-5.4-1-10.8-1.8-16.2-2.6c-3.9-0.6-7.7-1.1-11.6-1.5c-12.6-1.4-25.3-1.7-38-1.1
		c-5.9,0.3-11.9,0.5-17.7,1.2c-5.5,0.6-11,1.6-16.5,2.5c-3.9,0.7-7.9,1.3-11.7,2.3c-5.6,1.4-11.2,3-16.8,4.5c-3.1,0.9-6.2,2-9.4,2.9
		c-2.2,0.7-3.4,0.3-4.4-1.3c-0.9-1.4-0.5-3.9,0.8-4.7c1.2-0.7,2.5-1.4,3.8-1.8c4.9-1.5,9.8-3,14.7-4.4c5-1.3,10-2.6,15-3.7
		c6.5-1.3,12.9-2.7,19.4-3.6c6.9-1,13.9-1.5,20.9-2.2c2.3-0.2,4.6-0.4,6.9-0.8c0.5-0.1,1.2-0.7,1.3-1.1c0.6-2.6,1.3-5.2,1.4-7.9
		c0.3-9.6,0.3-19.1,0.4-28.7c0-3.5,0.1-7,0.2-10.5c0-0.9-0.5-1.3-1.1-1.2c-0.6,0.2-1.2,0.6-1.7,1.1c-1.1,1.3-2,2.8-3,4.2
		c-1.8,2.4-4.4,1.9-5.7,0.5c-1.4-1.5-1.4-4.3,0.1-6.3c2.3-2.9,4.6-5.8,6.9-8.7c2.6-3.4,5.2-6.8,7.8-10.1c4-5.1,8-10.2,11.9-15.4
		c3.1-4,6.1-8.1,9.2-12.1c3.4-4.4,6.8-8.8,10.3-13.2c1.9-2.4,3.7-4.8,5.6-7.2c3.8-4.9,7.7-9.8,11.5-14.6c1.9-2.4,3.9-4.8,6.4-6.6
		c4.6-3.3,9.5-4.3,14.9-2.8c5.1,1.4,8.9,4.9,12.2,9.2c2.2,2.9,4.4,5.7,6.6,8.6c4.9,6.4,9.8,12.8,14.8,19.2
		c4.7,6.1,9.4,12.3,14.1,18.4c7.3,9.5,14.6,19.1,21.9,28.6c1.3,1.7,2.8,3.3,4,5c0.8,1.1,1.4,2.3,1.9,3.6c0.6,1.6,0.3,3.1-0.8,4.3
		c-1,1.2-2.8,1.2-4.2,0.6c-1.4-0.6-2-1.8-2.9-2.9c-0.7-0.9-1.4-2-2.1-2.8c-0.4-0.4-1-0.6-1.5-0.9c-0.2,0.5-0.4,1.1-0.4,1.6
		C228.6,190.5,228.6,199.9,228.6,209.4C228.6,209.4,228.6,209.4,228.6,209.4z M220.9,204.7C220.9,204.7,220.9,204.7,220.9,204.7
		c0.1-11.1,0-22.1,0.1-33.2c0-2.5-0.9-4.3-2.2-6c-3.2-4.1-6.6-8.1-9.8-12.3c-4.1-5.2-8.1-10.6-12.1-15.9
		c-4.3-5.6-8.6-11.1-12.8-16.7c-4-5.3-8-10.6-11.9-15.8c-1.8-2.4-3.7-4.9-6.2-6.6c-2.4-1.6-5-1.5-7.6-1.2c-1.5,0.1-2.8,0.7-3.8,1.7
		c-2.6,2.7-5.3,5.4-7.7,8.4c-4,5-7.8,10.3-11.8,15.4c-5.3,6.9-10.6,13.7-15.9,20.6c-3.1,4-6.3,7.9-9.4,11.8
		c-2.2,2.8-4.4,5.8-6.6,8.6c-3.4,4.2-3.4,4.2-3.4,9.8c-0.1,13.7-0.2,27.4-0.4,41.1c-0.1,4.2-0.6,8.4-0.9,12.6
		c-0.1,1.4,0.4,2.1,1.7,2.2c3.6,0.3,7.3,0.6,10.9,0.8c2.6,0.2,5.1,0.2,7.7,0.5c5.6,0.7,11.1,1.5,16.7,2.2c1.4,0.2,1.9-0.3,2-1.9
		c0.1-1.8,0.1-3.6,0.1-5.5c0.1-10.7,0.1-21.4,0.1-32c0-3.4,0.7-6.7,2-9.8c3.3-8.4,9.2-13.2,17.3-14.4c5.3-0.8,10.4,0.2,15.1,3.3
		c4.4,2.9,7.5,6.9,9.4,12c1.6,4.4,2.2,9.1,2.2,13.9c0,13.4,0,26.7,0,40.1c0,2.6,0.9,3.2,2.8,3.3c4.7,0.3,9.4,0.7,14.1,0.7
		c6,0,12-0.5,18-0.7c2.1-0.1,2.4-0.5,2.4-2.8C220.9,227.5,220.9,216.1,220.9,204.7z M175.5,216.3
		C175.5,216.3,175.6,216.3,175.5,216.3c0-6.4,0.1-12.9,0-19.3c0-1.9-0.2-3.7-0.4-5.6c-0.6-4.3-2.6-7.7-5.5-10.5
		c-2.3-2.1-5.1-2.9-8-3.2c-5.4-0.5-9.8,1.5-13.2,6.3c-2.2,3.1-3.2,6.7-3.2,10.5c-0.1,11.7-0.1,23.3-0.1,35c0,1,0,2.1,0.1,3.1
		c0.1,1.1,0.6,1.7,1.6,2c0.5,0.1,0.9,0.2,1.4,0.3c5.2,1,10.4,2,15.6,3c3.1,0.6,6.1,1.2,9.2,1.6c2.6,0.4,2.7,0.3,2.7-2.7
		C175.5,230.1,175.5,223.2,175.5,216.3z"/>
	<path class="st1" d="M381.1,191.6c-8.1,0-15.1-1.6-21-4.7c-5.9-3.1-10.9-7.1-14.8-11.8c-3.9-4.7-6.8-9.9-8.7-15.5
		c-1.9-5.6-2.9-11-2.9-15.8v-3.4c0-4.9,1-10.2,2.9-15.8c1.9-5.6,4.8-10.9,8.7-15.7c3.8-4.8,8.8-8.7,14.7-11.8c5.9-3.1,13-4.7,21-4.7
		c5.1,0,9.9,0.7,14.2,2.1c4.3,1.4,8.4,3.3,12,5.6c3.6,2.3,6.8,5,9.5,8c2.7,3,4.8,6.2,6.4,9.4c0.4,0.8,0.4,1.2,0.4,1.3
		c0,0.3-0.1,1-0.9,2.4c-0.5,0.9-1.4,1.4-2.7,1.6l-12,2.1l-0.2,0.1c0,0,0,0,0,0c0,0-0.1,0-0.5,0c-1.1,0-1.9-0.2-2.4-0.6
		c-0.9-0.6-1.1-1-1.2-1.1l-1.7-2.3c-0.2-0.4-0.5-0.7-0.8-1.1c-0.3-0.4-0.7-0.7-1.1-1.1c-2.3-2.3-5.1-4.3-8.2-5.8
		c-3.2-1.5-6.8-2.3-10.6-2.3c-4.4,0-8.3,0.9-11.8,2.6c-3.4,1.7-6.3,4-8.6,6.8c-2.2,2.8-4,5.8-5.1,9.2c-1.2,3.3-1.8,6.7-1.8,10v4.9
		c0,3.2,0.6,6.5,1.8,9.9c1.2,3.4,2.9,6.5,5.1,9.3c2.2,2.8,5,5.1,8.3,6.9c3.3,1.9,7.3,2.8,11.6,2.8c5.9,0,10.9-1.5,14.8-4.4
		c3.8-2.9,7-6.4,9.6-10.6l0-0.1c0.9-1.7,2.2-2.5,4.1-2.5h0.9c0.1,0,0.2,0,0.3,0.1l0.1,0.1l11.1,3.1c1,0.3,1.7,0.8,2.1,1.4
		c0.6,1,0.7,1.6,0.7,2c0,0.9-0.2,1.1-0.2,1.1l-0.1,0.1l-0.1,0.1c-1.5,3.4-3.5,6.8-6.2,10.2c-2.6,3.3-5.8,6.4-9.4,9
		c-3.6,2.6-7.7,4.8-12.3,6.3C391.6,190.8,386.5,191.6,381.1,191.6z"/>
	<path class="st1" d="M482.6,191.8c-6.5,0-12.6-1.2-18.3-3.6c-5.7-2.4-10.7-5.7-15-9.9c-4.3-4.2-7.7-9.2-10.2-14.8
		c-2.5-5.6-3.8-11.6-3.8-18v-7c0-6.5,1.3-12.5,3.8-18.1c2.5-5.6,5.9-10.5,10.2-14.6c4.3-4.1,9.3-7.5,15-9.8
		c5.7-2.4,11.8-3.6,18.3-3.6c6.6,0,12.7,1.2,18.3,3.5c5.6,2.3,10.4,5.4,14.2,9l2.3,2.2v-8.4c0-0.7,0.4-1.7,1-2.9
		c0.6-0.9,1.8-1.4,3.8-1.4h11.5c1.9,0,3.1,0.5,3.8,1.4c0.9,1.4,1.1,2.4,1.1,2.9v86.6c0,0.3-0.2,1.2-1.2,2.8c-0.7,1-1.9,1.6-3.7,1.6
		h-11.5c-1.9,0-3.1-0.5-3.8-1.4c-0.7-1.1-1.1-2.1-1.1-2.9V177l-2.3,2.2c-3.9,3.7-8.7,6.7-14.3,9.1
		C495.3,190.6,489.2,191.8,482.6,191.8z M485.4,110.9c-4.7,0-9,0.9-12.7,2.8c-3.7,1.8-6.8,4.2-9.4,7.1c-2.6,2.9-4.5,6.2-5.8,9.7
		c-1.3,3.5-2,7.1-2,10.7v1.7c0,3.6,0.7,7.1,2,10.7c1.3,3.5,3.3,6.8,5.8,9.7c2.6,2.9,5.7,5.3,9.4,7.1c3.7,1.9,8,2.8,12.7,2.8
		c4.7,0,9-0.9,12.7-2.8c3.7-1.8,6.8-4.2,9.4-7.1c2.6-2.9,4.5-6.1,5.8-9.7c1.3-3.5,2-7.1,2-10.7v-1.7c0-3.5-0.7-7.1-2-10.7
		c-1.3-3.5-3.3-6.8-5.8-9.7c-2.6-2.9-5.7-5.3-9.4-7.1C494.4,111.8,490.2,110.9,485.4,110.9z"/>
	<path class="st1" d="M614.4,191.8c-6.6,0-12.7-1.2-18.2-3.6c-5.5-2.4-10.3-5.5-14.4-9.1l-2.3-2.1v8.2c0,0.3-0.2,1.2-1.2,2.8
		c-0.7,1-1.8,1.6-3.5,1.6h-11.7c-2.2,0-3.1-0.9-3.5-1.6c-1-1.6-1.2-2.4-1.2-2.8V62.9c0-0.7,0.4-1.7,1.1-2.7c0.6-0.9,1.8-1.4,3.6-1.4
		h11.7c1.8,0,3,0.5,3.6,1.4c0.7,1.1,1.1,2,1.1,2.7V107l2.3-2.1c4-3.7,8.9-6.7,14.4-9c5.5-2.3,11.6-3.5,18.2-3.5
		c6.5,0,12.7,1.2,18.4,3.6c5.7,2.4,10.8,5.7,15.1,9.7c4.3,4.1,7.7,9,10.1,14.6c2.4,5.6,3.7,11.7,3.7,18.2v7c0,6.3-1.3,12.4-3.8,18
		c-2.5,5.6-5.9,10.6-10.2,14.8c-4.3,4.2-9.3,7.5-15,9.9C627,190.6,620.9,191.8,614.4,191.8z M611.6,110.9c-4.7,0-9,0.9-12.7,2.8
		c-3.7,1.8-6.8,4.2-9.4,7.1c-2.6,2.9-4.5,6.1-5.9,9.7c-1.4,3.5-2.1,7.1-2.1,10.7v1.7c0,3.6,0.7,7.2,2.1,10.7
		c1.4,3.5,3.4,6.8,5.9,9.7c2.6,2.9,5.7,5.3,9.4,7.1c3.7,1.9,8,2.8,12.7,2.8c4.7,0,9-0.9,12.8-2.8c3.7-1.8,6.9-4.2,9.5-7.1
		c2.6-2.9,4.5-6.1,5.8-9.7c1.3-3.5,2-7.1,2-10.7v-1.7c0-3.5-0.7-7.1-2-10.7c-1.3-3.5-3.3-6.8-5.8-9.7c-2.6-2.9-5.8-5.3-9.5-7.1
		C620.6,111.8,616.3,110.9,611.6,110.9z"/>
	<path class="st1" d="M748.5,189.9c-2.3,0-2.8-0.9-3-1.2c-0.8-1.4-0.9-2.1-0.9-2.3v-55.8c0-2.4-0.5-4.9-1.4-7.5
		c-0.9-2.6-2.3-4.9-4.1-6.9c-1.8-2-4-3.7-6.5-4.9c-2.6-1.3-5.5-1.9-8.7-1.9c-4.2,0-7.9,1.2-11.1,3.7c-3,2.4-5.6,5.2-7.6,8.6
		c-2,3.3-3.6,6.9-4.6,10.7c-1,3.8-1.6,7.2-1.6,10.2v43.9c0,0.2-0.1,0.9-0.9,2.3c-0.2,0.3-0.7,1.2-3,1.2h-13.2c-2.3,0-2.8-0.9-3-1.2
		c-0.8-1.4-0.9-2.1-0.9-2.3V99c0-0.5,0.2-1.4,1.1-2.9c0.6-1,1.8-1.4,3.6-1.4h11.7c1.8,0,3,0.5,3.6,1.4c0.9,1.4,1.1,2.4,1.1,2.9v7.3
		l2.4-2.7c3.1-3.5,6.9-6.3,11.2-8.3c4.3-2,9.8-3,16.3-3c6.7,0,12.3,1.3,16.8,4c4.5,2.7,8.3,6,11.1,9.8c2.9,3.9,4.9,8.2,6.2,12.7
		c1.3,4.6,1.9,8.8,1.9,12.6v54.8c0,0.2-0.1,0.9-0.9,2.3c-0.2,0.3-0.7,1.2-3,1.2H748.5z"/>
</g>
</svg>
