<svg xmlns="http://www.w3.org/2000/svg" xmlns:xlink="http://www.w3.org/1999/xlink" width="456" zoomAndPan="magnify" viewBox="0 0 342 199.499995" height="266" preserveAspectRatio="xMidYMid meet" version="1.0"><defs><g/><clipPath id="b5003f8abd"><path d="M 67 31.210938 L 182 31.210938 L 182 70.859375 L 67 70.859375 Z M 67 31.210938 " clip-rule="nonzero"/></clipPath><clipPath id="93d5e2b4b4"><path d="M 202.101562 135.203125 L 237.96875 135.203125 L 237.96875 147.726562 L 202.101562 147.726562 Z M 202.101562 135.203125 " clip-rule="nonzero"/></clipPath></defs><g clip-path="url(#b5003f8abd)"><path fill="#2f4c3a" d="M 124.191406 31.242188 L 124.167969 31.277344 L 124.148438 31.242188 L 91.335938 50.59375 L 91.335938 42.882812 L 80.808594 42.882812 L 80.808594 56.777344 L 80.84375 56.777344 L 67.3125 64.757812 L 70.878906 70.804688 L 124.167969 39.378906 L 177.457031 70.804688 L 181.023438 64.757812 Z M 124.191406 31.242188 " fill-opacity="1" fill-rule="nonzero"/></g><g fill="#2f4c3a" fill-opacity="1"><g transform="translate(42.674006, 136.733831)"><g><path d="M 22 0.859375 C 15.925781 0.859375 11.53125 -0.316406 8.8125 -2.671875 C 6.101562 -5.035156 4.59375 -8.90625 4.28125 -14.28125 C 4.15625 -16.914062 4.054688 -19.5 3.984375 -22.03125 C 3.921875 -24.570312 3.890625 -27.082031 3.890625 -29.5625 C 3.890625 -32.050781 3.921875 -34.523438 3.984375 -36.984375 C 4.054688 -39.441406 4.15625 -41.910156 4.28125 -44.390625 C 4.613281 -49.941406 6.171875 -53.875 8.953125 -56.1875 C 11.734375 -58.5 16.039062 -59.65625 21.875 -59.65625 C 27.769531 -59.65625 32.078125 -58.519531 34.796875 -56.25 C 37.515625 -53.976562 38.972656 -50.164062 39.171875 -44.8125 C 39.203125 -43.78125 39.210938 -42.585938 39.203125 -41.234375 C 39.203125 -39.890625 39.160156 -38.570312 39.078125 -37.28125 L 36.96875 -37.28125 C 37.019531 -38.15625 37.039062 -39.226562 37.03125 -40.5 C 37.019531 -41.769531 36.992188 -43.179688 36.953125 -44.734375 C 36.765625 -49.421875 35.503906 -52.78125 33.171875 -54.8125 C 30.847656 -56.851562 27.082031 -57.875 21.875 -57.875 C 16.695312 -57.875 12.914062 -56.816406 10.53125 -54.703125 C 8.144531 -52.597656 6.816406 -49.117188 6.546875 -44.265625 C 6.410156 -41.878906 6.3125 -39.488281 6.25 -37.09375 C 6.1875 -34.707031 6.148438 -32.289062 6.140625 -29.84375 C 6.128906 -27.394531 6.160156 -24.882812 6.234375 -22.3125 C 6.304688 -19.75 6.410156 -17.101562 6.546875 -14.375 C 6.804688 -9.59375 8.132812 -6.15625 10.53125 -4.0625 C 12.9375 -1.976562 16.757812 -0.9375 22 -0.9375 C 27.125 -0.9375 30.835938 -1.976562 33.140625 -4.0625 C 35.453125 -6.15625 36.722656 -9.578125 36.953125 -14.328125 C 37.023438 -15.910156 37.046875 -17.320312 37.015625 -18.5625 C 36.984375 -19.8125 36.925781 -20.859375 36.84375 -21.703125 L 39.078125 -21.703125 C 39.171875 -20.921875 39.226562 -19.859375 39.25 -18.515625 C 39.28125 -17.179688 39.253906 -15.765625 39.171875 -14.265625 C 38.929688 -8.859375 37.484375 -4.984375 34.828125 -2.640625 C 32.171875 -0.304688 27.894531 0.859375 22 0.859375 Z M 22 -2.75 C 17.457031 -2.75 14.171875 -3.675781 12.140625 -5.53125 C 10.117188 -7.394531 9.003906 -10.382812 8.796875 -14.5 C 8.648438 -17.257812 8.539062 -19.910156 8.46875 -22.453125 C 8.40625 -24.992188 8.375 -27.457031 8.375 -29.84375 C 8.375 -32.238281 8.40625 -34.613281 8.46875 -36.96875 C 8.539062 -39.320312 8.640625 -41.691406 8.765625 -44.078125 C 9.015625 -48.566406 10.21875 -51.6875 12.375 -53.4375 C 14.53125 -55.1875 17.695312 -56.0625 21.875 -56.0625 C 26.175781 -56.0625 29.347656 -55.207031 31.390625 -53.5 C 33.441406 -51.789062 34.539062 -48.84375 34.6875 -44.65625 C 34.738281 -43.238281 34.769531 -41.910156 34.78125 -40.671875 C 34.789062 -39.429688 34.757812 -38.300781 34.6875 -37.28125 L 32.484375 -37.28125 C 32.535156 -38.1875 32.554688 -39.253906 32.546875 -40.484375 C 32.535156 -41.710938 32.507812 -43.085938 32.46875 -44.609375 C 32.332031 -48.253906 31.378906 -50.773438 29.609375 -52.171875 C 27.835938 -53.566406 25.257812 -54.265625 21.875 -54.265625 C 18.269531 -54.265625 15.613281 -53.476562 13.90625 -51.90625 C 12.195312 -50.34375 11.238281 -47.691406 11.03125 -43.953125 C 10.894531 -41.484375 10.796875 -39.0625 10.734375 -36.6875 C 10.671875 -34.320312 10.640625 -31.953125 10.640625 -29.578125 C 10.640625 -27.203125 10.671875 -24.785156 10.734375 -22.328125 C 10.796875 -19.867188 10.894531 -17.328125 11.03125 -14.703125 C 11.21875 -11.109375 12.160156 -8.515625 13.859375 -6.921875 C 15.566406 -5.328125 18.28125 -4.53125 22 -4.53125 C 25.394531 -4.53125 27.941406 -5.269531 29.640625 -6.75 C 31.335938 -8.238281 32.28125 -10.800781 32.46875 -14.4375 C 32.53125 -15.789062 32.554688 -17.070312 32.546875 -18.28125 C 32.535156 -19.5 32.484375 -20.640625 32.390625 -21.703125 L 34.625 -21.703125 C 34.695312 -20.742188 34.742188 -19.65625 34.765625 -18.4375 C 34.796875 -17.21875 34.769531 -15.863281 34.6875 -14.375 C 34.507812 -10.28125 33.4375 -7.316406 31.46875 -5.484375 C 29.5 -3.660156 26.34375 -2.75 22 -2.75 Z M 22 -6.328125 C 19.039062 -6.328125 16.882812 -7 15.53125 -8.34375 C 14.175781 -9.6875 13.414062 -11.835938 13.25 -14.796875 C 13.125 -17.535156 13.023438 -20.125 12.953125 -22.5625 C 12.890625 -25.007812 12.859375 -27.382812 12.859375 -29.6875 C 12.859375 -31.988281 12.890625 -34.300781 12.953125 -36.625 C 13.023438 -38.945312 13.125 -41.359375 13.25 -43.859375 C 13.4375 -46.921875 14.195312 -49.125 15.53125 -50.46875 C 16.875 -51.8125 18.988281 -52.484375 21.875 -52.484375 C 24.625 -52.484375 26.675781 -51.890625 28.03125 -50.703125 C 29.382812 -49.515625 30.109375 -47.421875 30.203125 -44.421875 C 30.253906 -43.359375 30.285156 -42.15625 30.296875 -40.8125 C 30.316406 -39.476562 30.28125 -38.300781 30.1875 -37.28125 L 27.9375 -37.28125 C 28.007812 -38.3125 28.039062 -39.441406 28.03125 -40.671875 C 28.03125 -41.910156 28.015625 -43.144531 27.984375 -44.375 C 27.910156 -46.59375 27.40625 -48.195312 26.46875 -49.1875 C 25.53125 -50.175781 24 -50.671875 21.875 -50.671875 C 19.71875 -50.671875 18.148438 -50.117188 17.171875 -49.015625 C 16.191406 -47.921875 15.628906 -46.144531 15.484375 -43.6875 C 15.367188 -41.238281 15.273438 -38.859375 15.203125 -36.546875 C 15.140625 -34.242188 15.109375 -31.941406 15.109375 -29.640625 C 15.109375 -27.335938 15.140625 -24.976562 15.203125 -22.5625 C 15.273438 -20.144531 15.378906 -17.597656 15.515625 -14.921875 C 15.628906 -12.566406 16.191406 -10.847656 17.203125 -9.765625 C 18.210938 -8.679688 19.8125 -8.140625 22 -8.140625 C 24.039062 -8.140625 25.519531 -8.675781 26.4375 -9.75 C 27.363281 -10.832031 27.878906 -12.488281 27.984375 -14.71875 C 28.023438 -15.851562 28.039062 -17.023438 28.03125 -18.234375 C 28.03125 -19.441406 28 -20.597656 27.9375 -21.703125 L 30.15625 -21.703125 C 30.21875 -20.753906 30.257812 -19.640625 30.28125 -18.359375 C 30.300781 -17.078125 30.273438 -15.832031 30.203125 -14.625 C 30.085938 -11.75 29.390625 -9.644531 28.109375 -8.3125 C 26.828125 -6.988281 24.789062 -6.328125 22 -6.328125 Z M 22 -6.328125 "/></g></g></g><g fill="#2f4c3a" fill-opacity="1"><g transform="translate(80.083043, 136.733831)"><g><path d="M 36.609375 0 L 36.609375 -42.390625 C 36.609375 -47.679688 35.523438 -51.582031 33.359375 -54.09375 C 31.191406 -56.613281 27.421875 -57.875 22.046875 -57.875 C 17.085938 -57.875 13.378906 -56.890625 10.921875 -54.921875 C 8.472656 -52.960938 7.148438 -49.582031 6.953125 -44.78125 C 6.910156 -43.539062 6.890625 -42.300781 6.890625 -41.0625 C 6.898438 -39.820312 6.945312 -38.5625 7.03125 -37.28125 L 4.828125 -37.28125 C 4.722656 -38.675781 4.660156 -39.941406 4.640625 -41.078125 C 4.628906 -42.222656 4.660156 -43.492188 4.734375 -44.890625 C 4.941406 -50.191406 6.40625 -53.976562 9.125 -56.25 C 11.84375 -58.519531 16.148438 -59.65625 22.046875 -59.65625 C 26.234375 -59.65625 29.550781 -59.03125 32 -57.78125 C 34.445312 -56.53125 36.203125 -54.628906 37.265625 -52.078125 C 38.328125 -49.535156 38.859375 -46.304688 38.859375 -42.390625 L 38.859375 0 Z M 18.40625 -4.4375 C 21.164062 -4.4375 23.566406 -5.097656 25.609375 -6.421875 C 27.648438 -7.742188 29.234375 -9.441406 30.359375 -11.515625 C 31.484375 -13.585938 32.046875 -15.734375 32.046875 -17.953125 L 32.046875 -31.109375 C 29.941406 -30.734375 27.679688 -30.226562 25.265625 -29.59375 C 22.847656 -28.957031 20.835938 -28.320312 19.234375 -27.6875 C 16.242188 -26.445312 14.015625 -24.929688 12.546875 -23.140625 C 11.078125 -21.347656 10.1875 -18.953125 9.875 -15.953125 C 9.820312 -15.390625 9.800781 -14.820312 9.8125 -14.25 C 9.820312 -13.6875 9.847656 -13.148438 9.890625 -12.640625 C 10.203125 -10.191406 11.070312 -8.210938 12.5 -6.703125 C 13.9375 -5.191406 15.90625 -4.4375 18.40625 -4.4375 Z M 18.90625 -6.375 C 16.914062 -6.375 15.332031 -6.992188 14.15625 -8.234375 C 12.976562 -9.472656 12.300781 -11.015625 12.125 -12.859375 C 12.070312 -13.398438 12.046875 -13.921875 12.046875 -14.421875 C 12.046875 -14.921875 12.066406 -15.394531 12.109375 -15.84375 C 12.316406 -18.445312 13.046875 -20.515625 14.296875 -22.046875 C 15.554688 -23.585938 17.453125 -24.890625 19.984375 -25.953125 C 21.648438 -26.628906 23.242188 -27.191406 24.765625 -27.640625 C 26.285156 -28.097656 27.960938 -28.515625 29.796875 -28.890625 L 29.796875 -17.765625 C 29.796875 -15.703125 29.320312 -13.804688 28.375 -12.078125 C 27.4375 -10.347656 26.15625 -8.960938 24.53125 -7.921875 C 22.90625 -6.890625 21.03125 -6.375 18.90625 -6.375 Z M 19.203125 -8.109375 C 20.742188 -8.109375 22.140625 -8.53125 23.390625 -9.375 C 24.648438 -10.226562 25.65625 -11.367188 26.40625 -12.796875 C 27.15625 -14.222656 27.53125 -15.8125 27.53125 -17.5625 L 27.53125 -26.625 C 26.425781 -26.320312 25.320312 -25.972656 24.21875 -25.578125 C 23.113281 -25.179688 21.957031 -24.734375 20.75 -24.234375 C 18.5625 -23.265625 16.976562 -22.140625 16 -20.859375 C 15.019531 -19.578125 14.472656 -17.875 14.359375 -15.75 C 14.328125 -15.195312 14.3125 -14.703125 14.3125 -14.265625 C 14.320312 -13.835938 14.34375 -13.425781 14.375 -13.03125 C 14.507812 -11.769531 14.992188 -10.632812 15.828125 -9.625 C 16.660156 -8.613281 17.785156 -8.109375 19.203125 -8.109375 Z M 16.390625 0.859375 C 12.679688 0.859375 9.644531 -0.257812 7.28125 -2.5 C 4.925781 -4.738281 3.5625 -7.945312 3.1875 -12.125 C 3.125 -12.925781 3.09375 -13.695312 3.09375 -14.4375 C 3.09375 -15.1875 3.113281 -15.953125 3.15625 -16.734375 C 3.46875 -20.671875 4.695312 -23.882812 6.84375 -26.375 C 8.988281 -28.863281 12.359375 -31.023438 16.953125 -32.859375 C 18.035156 -33.296875 19.097656 -33.6875 20.140625 -34.03125 C 21.179688 -34.382812 22.304688 -34.722656 23.515625 -35.046875 C 24.722656 -35.378906 26.097656 -35.71875 27.640625 -36.0625 L 27.640625 -42.390625 C 27.640625 -44.960938 27.226562 -46.984375 26.40625 -48.453125 C 25.59375 -49.929688 24.140625 -50.671875 22.046875 -50.671875 C 19.972656 -50.671875 18.453125 -50.117188 17.484375 -49.015625 C 16.523438 -47.921875 16.003906 -46.363281 15.921875 -44.34375 C 15.890625 -43.738281 15.867188 -42.757812 15.859375 -41.40625 C 15.847656 -40.050781 15.878906 -38.675781 15.953125 -37.28125 L 13.71875 -37.28125 C 13.65625 -38.738281 13.625 -40.097656 13.625 -41.359375 C 13.632812 -42.628906 13.660156 -43.691406 13.703125 -44.546875 C 13.796875 -47.191406 14.503906 -49.175781 15.828125 -50.5 C 17.160156 -51.820312 19.234375 -52.484375 22.046875 -52.484375 C 25.003906 -52.484375 27.046875 -51.597656 28.171875 -49.828125 C 29.296875 -48.066406 29.859375 -45.585938 29.859375 -42.390625 L 29.859375 -34.515625 C 27.753906 -34.046875 25.628906 -33.519531 23.484375 -32.9375 C 21.347656 -32.363281 19.429688 -31.765625 17.734375 -31.140625 C 13.847656 -29.703125 10.867188 -27.765625 8.796875 -25.328125 C 6.722656 -22.898438 5.585938 -19.96875 5.390625 -16.53125 C 5.367188 -15.894531 5.351562 -15.203125 5.34375 -14.453125 C 5.34375 -13.703125 5.375 -12.992188 5.4375 -12.328125 C 5.71875 -8.847656 6.875 -6.066406 8.90625 -3.984375 C 10.9375 -1.910156 13.648438 -0.875 17.046875 -0.875 C 20.109375 -0.875 22.738281 -1.519531 24.9375 -2.8125 C 27.144531 -4.101562 28.992188 -5.898438 30.484375 -8.203125 L 31 -8.203125 L 30.078125 -2.125 L 30.078125 0 L 27.859375 0 L 27.828125 -0.6875 L 29.078125 -4.609375 L 28.671875 -4.609375 C 27.117188 -2.691406 25.335938 -1.300781 23.328125 -0.4375 C 21.328125 0.425781 19.015625 0.859375 16.390625 0.859375 Z M 32.125 0.03125 L 32.125 -5.703125 L 32.515625 -12.9375 L 32 -12.9375 C 30.71875 -9.78125 28.847656 -7.273438 26.390625 -5.421875 C 23.941406 -3.566406 21.035156 -2.648438 17.671875 -2.671875 C 14.867188 -2.679688 12.566406 -3.554688 10.765625 -5.296875 C 8.960938 -7.035156 7.929688 -9.425781 7.671875 -12.46875 C 7.617188 -13.070312 7.59375 -13.71875 7.59375 -14.40625 C 7.59375 -15.09375 7.609375 -15.738281 7.640625 -16.34375 C 7.890625 -19.789062 8.882812 -22.5 10.625 -24.46875 C 12.363281 -26.445312 14.988281 -28.097656 18.5 -29.421875 C 19.570312 -29.828125 20.890625 -30.25 22.453125 -30.6875 C 24.023438 -31.132812 25.660156 -31.554688 27.359375 -31.953125 C 29.066406 -32.359375 30.65625 -32.691406 32.125 -32.953125 L 32.125 -42.390625 C 32.125 -46.253906 31.390625 -49.195312 29.921875 -51.21875 C 28.460938 -53.25 25.835938 -54.265625 22.046875 -54.265625 C 18.566406 -54.265625 15.960938 -53.515625 14.234375 -52.015625 C 12.515625 -50.515625 11.582031 -48.039062 11.4375 -44.59375 C 11.40625 -43.625 11.382812 -42.5 11.375 -41.21875 C 11.375 -39.9375 11.410156 -38.625 11.484375 -37.28125 L 9.265625 -37.28125 C 9.179688 -38.625 9.140625 -39.9375 9.140625 -41.21875 C 9.140625 -42.5 9.15625 -43.640625 9.1875 -44.640625 C 9.363281 -48.660156 10.457031 -51.566406 12.46875 -53.359375 C 14.476562 -55.160156 17.671875 -56.0625 22.046875 -56.0625 C 26.609375 -56.0625 29.796875 -54.929688 31.609375 -52.671875 C 33.429688 -50.421875 34.34375 -46.992188 34.34375 -42.390625 L 34.34375 0.03125 Z M 32.125 0.03125 "/></g></g></g><g fill="#2f4c3a" fill-opacity="1"><g transform="translate(118.325028, 136.733831)"><g><path d="M 5.015625 0 L 5.015625 -78.40625 L 7.28125 -78.40625 L 7.28125 0 Z M 9.5 0 L 9.5 -78.40625 L 11.765625 -78.40625 L 11.765625 -61.859375 L 11.46875 -45.6875 L 11.984375 -45.6875 C 13.054688 -49.007812 14.75 -51.578125 17.0625 -53.390625 C 19.375 -55.210938 22.066406 -56.09375 25.140625 -56.03125 C 29.054688 -55.945312 31.945312 -54.867188 33.8125 -52.796875 C 35.675781 -50.722656 36.757812 -47.34375 37.0625 -42.65625 C 37.28125 -39.5 37.421875 -36.488281 37.484375 -33.625 C 37.546875 -30.757812 37.546875 -27.914062 37.484375 -25.09375 C 37.421875 -22.28125 37.28125 -19.367188 37.0625 -16.359375 C 36.707031 -11.523438 35.65625 -8.035156 33.90625 -5.890625 C 32.15625 -3.753906 29.425781 -2.6875 25.71875 -2.6875 C 22.289062 -2.6875 19.285156 -3.71875 16.703125 -5.78125 C 14.128906 -7.84375 12.46875 -10.546875 11.71875 -13.890625 L 11.203125 -13.890625 L 11.765625 0 Z M 24.640625 -4.484375 C 27.992188 -4.484375 30.476562 -5.382812 32.09375 -7.1875 C 33.707031 -8.988281 34.625 -12.097656 34.84375 -16.515625 C 35.019531 -20.484375 35.128906 -24.484375 35.171875 -28.515625 C 35.210938 -32.546875 35.101562 -37.25 34.84375 -42.625 C 34.625 -46.757812 33.726562 -49.71875 32.15625 -51.5 C 30.59375 -53.289062 28.113281 -54.1875 24.71875 -54.1875 C 22.269531 -54.1875 20.132812 -53.6875 18.3125 -52.6875 C 16.488281 -51.695312 15.039062 -50.265625 13.96875 -48.390625 C 12.90625 -46.523438 12.265625 -44.285156 12.046875 -41.671875 C 11.890625 -39.335938 11.789062 -36.804688 11.75 -34.078125 C 11.707031 -31.347656 11.722656 -28.5625 11.796875 -25.71875 C 11.867188 -22.882812 11.972656 -20.125 12.109375 -17.4375 C 12.253906 -14.945312 12.875 -12.722656 13.96875 -10.765625 C 15.0625 -8.816406 16.523438 -7.28125 18.359375 -6.15625 C 20.203125 -5.039062 22.296875 -4.484375 24.640625 -4.484375 Z M 24.0625 -6.34375 C 21.007812 -6.34375 18.648438 -7.34375 16.984375 -9.34375 C 15.316406 -11.34375 14.398438 -14.039062 14.234375 -17.4375 C 14.117188 -20.050781 14.039062 -22.78125 14 -25.625 C 13.957031 -28.46875 13.957031 -31.265625 14 -34.015625 C 14.039062 -36.765625 14.109375 -39.3125 14.203125 -41.65625 C 14.390625 -44.914062 15.351562 -47.535156 17.09375 -49.515625 C 18.832031 -51.503906 21.273438 -52.5 24.421875 -52.5 C 27.296875 -52.5 29.34375 -51.703125 30.5625 -50.109375 C 31.78125 -48.515625 32.460938 -46.019531 32.609375 -42.625 C 32.722656 -39.40625 32.800781 -36.382812 32.84375 -33.5625 C 32.894531 -30.75 32.90625 -27.960938 32.875 -25.203125 C 32.84375 -22.441406 32.753906 -19.519531 32.609375 -16.4375 C 32.441406 -12.78125 31.6875 -10.179688 30.34375 -8.640625 C 29 -7.109375 26.90625 -6.34375 24.0625 -6.34375 Z M 24.0625 -8.140625 C 26.144531 -8.140625 27.679688 -8.769531 28.671875 -10.03125 C 29.660156 -11.300781 30.226562 -13.445312 30.375 -16.46875 C 30.539062 -20.300781 30.644531 -24.269531 30.6875 -28.375 C 30.738281 -32.488281 30.632812 -37.222656 30.375 -42.578125 C 30.226562 -45.535156 29.679688 -47.625 28.734375 -48.84375 C 27.785156 -50.0625 26.347656 -50.671875 24.421875 -50.671875 C 21.972656 -50.671875 20.070312 -49.828125 18.71875 -48.140625 C 17.363281 -46.460938 16.613281 -44.289062 16.46875 -41.625 C 16.351562 -39.144531 16.273438 -36.457031 16.234375 -33.5625 C 16.191406 -30.675781 16.191406 -27.832031 16.234375 -25.03125 C 16.273438 -22.238281 16.351562 -19.726562 16.46875 -17.5 C 16.625 -14.695312 17.332031 -12.4375 18.59375 -10.71875 C 19.851562 -9 21.675781 -8.140625 24.0625 -8.140625 Z M 26.78125 0.859375 C 24.476562 0.859375 22.28125 0.410156 20.1875 -0.484375 C 18.09375 -1.390625 16.398438 -2.648438 15.109375 -4.265625 L 14.65625 -4.265625 L 15.578125 -0.765625 L 15.578125 0 L 13.421875 0 L 12.546875 -8.375 L 13.0625 -8.375 C 14.382812 -6.125 16.253906 -4.320312 18.671875 -2.96875 C 21.085938 -1.613281 23.625 -0.9375 26.28125 -0.9375 C 30.363281 -0.9375 33.453125 -2.09375 35.546875 -4.40625 C 37.640625 -6.726562 38.898438 -10.738281 39.328125 -16.4375 C 39.515625 -19.25 39.640625 -22.070312 39.703125 -24.90625 C 39.773438 -27.75 39.773438 -30.648438 39.703125 -33.609375 C 39.640625 -36.566406 39.503906 -39.597656 39.296875 -42.703125 C 38.921875 -48.253906 37.671875 -52.164062 35.546875 -54.4375 C 33.421875 -56.707031 30.253906 -57.84375 26.046875 -57.84375 C 23.171875 -57.84375 20.640625 -57.203125 18.453125 -55.921875 C 16.273438 -54.648438 14.59375 -52.863281 13.40625 -50.5625 L 12.859375 -50.5625 L 13.859375 -63.328125 L 13.859375 -78.40625 L 16.25 -78.40625 L 16.25 -64.96875 L 14.4375 -54.171875 L 14.96875 -54.171875 C 16.425781 -55.984375 18.1875 -57.347656 20.25 -58.265625 C 22.3125 -59.191406 24.53125 -59.65625 26.90625 -59.65625 C 31.632812 -59.65625 35.148438 -58.351562 37.453125 -55.75 C 39.765625 -53.144531 41.128906 -48.785156 41.546875 -42.671875 C 41.742188 -39.554688 41.875 -36.5625 41.9375 -33.6875 C 42.007812 -30.8125 42.015625 -27.953125 41.953125 -25.109375 C 41.898438 -22.265625 41.765625 -19.34375 41.546875 -16.34375 C 41.078125 -10.226562 39.691406 -5.832031 37.390625 -3.15625 C 35.097656 -0.476562 31.5625 0.859375 26.78125 0.859375 Z M 26.78125 0.859375 "/></g></g></g><g fill="#2f4c3a" fill-opacity="1"><g transform="translate(158.820858, 136.733831)"><g><path d="M 39.84375 0 L 39.84375 -42.65625 C 39.84375 -43.988281 39.734375 -45.507812 39.515625 -47.21875 C 39.304688 -48.925781 38.800781 -50.582031 38 -52.1875 C 37.195312 -53.800781 35.929688 -55.128906 34.203125 -56.171875 C 32.484375 -57.222656 30.113281 -57.75 27.09375 -57.75 C 24.0625 -57.75 21.382812 -57.128906 19.0625 -55.890625 C 16.738281 -54.660156 14.835938 -52.898438 13.359375 -50.609375 L 12.84375 -50.609375 L 13.796875 -58.796875 L 16.015625 -58.796875 L 16.046875 -57.875 L 14.71875 -54.25 L 15.21875 -54.25 C 16.800781 -56.132812 18.632812 -57.507812 20.71875 -58.375 C 22.800781 -59.25 25.15625 -59.6875 27.78125 -59.6875 C 30.488281 -59.6875 32.722656 -59.296875 34.484375 -58.515625 C 36.242188 -57.742188 37.632812 -56.71875 38.65625 -55.4375 C 39.6875 -54.164062 40.441406 -52.785156 40.921875 -51.296875 C 41.410156 -49.816406 41.722656 -48.351562 41.859375 -46.90625 C 41.992188 -45.457031 42.0625 -44.179688 42.0625 -43.078125 L 42.0625 0 Z M 5.015625 0 L 5.015625 -58.796875 L 7.28125 -58.796875 L 7.28125 0 Z M 14.015625 0 L 14.015625 -41.0625 C 14.015625 -43.132812 14.5 -44.96875 15.46875 -46.5625 C 16.4375 -48.164062 17.757812 -49.429688 19.4375 -50.359375 C 21.113281 -51.285156 23.003906 -51.75 25.109375 -51.75 C 26.992188 -51.75 28.476562 -51.410156 29.5625 -50.734375 C 30.644531 -50.066406 31.4375 -49.222656 31.9375 -48.203125 C 32.445312 -47.179688 32.773438 -46.101562 32.921875 -44.96875 C 33.066406 -43.832031 33.140625 -42.800781 33.140625 -41.875 L 33.140625 0 L 30.890625 0 L 30.890625 -41.75 C 30.890625 -42.90625 30.773438 -44.101562 30.546875 -45.34375 C 30.316406 -46.59375 29.773438 -47.648438 28.921875 -48.515625 C 28.066406 -49.378906 26.691406 -49.8125 24.796875 -49.8125 C 23.273438 -49.8125 21.875 -49.46875 20.59375 -48.78125 C 19.3125 -48.09375 18.289062 -47.109375 17.53125 -45.828125 C 16.769531 -44.554688 16.378906 -43.039062 16.359375 -41.28125 L 16.25 0 Z M 9.5 0 L 9.5 -58.796875 L 11.734375 -58.796875 L 11.3125 -45.90625 L 11.828125 -45.90625 C 13.117188 -49.0625 15.035156 -51.503906 17.578125 -53.234375 C 20.117188 -54.960938 23.070312 -55.8125 26.4375 -55.78125 C 30.289062 -55.769531 33.113281 -54.648438 34.90625 -52.421875 C 36.707031 -50.191406 37.609375 -46.894531 37.609375 -42.53125 L 37.609375 0 L 35.359375 0 L 35.359375 -42.265625 C 35.359375 -46.128906 34.585938 -49.03125 33.046875 -50.96875 C 31.515625 -52.90625 29.054688 -53.875 25.671875 -53.875 C 22.898438 -53.875 20.472656 -53.253906 18.390625 -52.015625 C 16.304688 -50.785156 14.679688 -49.1875 13.515625 -47.21875 C 12.359375 -45.25 11.78125 -43.140625 11.78125 -40.890625 L 11.78125 0 Z M 9.5 0 "/></g></g></g><path fill="#355e3b" d="M 220 118.195312 C 221.777344 118.195312 223.222656 119.707031 223.222656 121.574219 C 223.222656 123.4375 221.777344 124.949219 220 124.949219 C 218.222656 124.949219 216.78125 123.4375 216.78125 121.574219 C 216.78125 119.707031 218.222656 118.195312 220 118.195312 Z M 220.417969 141.457031 C 217.558594 141.246094 211.203125 122.324219 215.433594 117.683594 C 220.109375 112.5625 226.839844 115.929688 226.335938 123.046875 C 226.089844 126.542969 222.597656 141.621094 220.417969 141.457031 " fill-opacity="1" fill-rule="evenodd"/><g clip-path="url(#93d5e2b4b4)"><path stroke-linecap="round" transform="matrix(0.00974876, 0, 0, -0.00974876, 202.102147, 147.792084)" fill="none" stroke-linejoin="round" d="M 1330.237811 1171.532898 C 224.728319 1147.090681 -87.010131 820.12593 142.185747 485.948723 C 542.076459 -96.256892 3592.545383 -39.759307 3633.415977 498.370178 C 3678.293492 1086.986866 2390.469096 1211.602108 2390.469096 1211.602108 M 1430.410835 891.449123 C 1430.410835 891.449123 574.933211 887.842895 704.356758 637.811027 C 853.013525 350.114102 2737.468451 308.442124 3020.357071 531.627622 C 3300.440846 752.408966 2350.399887 891.449123 2350.399887 891.449123 " stroke="#494ca9" stroke-width="143.289993" stroke-opacity="1" stroke-miterlimit="10"/></g><path stroke-linecap="round" transform="matrix(0.00974876, 0, 0, -0.00974876, 202.102147, 147.792084)" fill="none" stroke-linejoin="round" d="M 2287.090311 2720.207581 C 2287.891695 2721.409657 2287.090311 2716.601353 2287.090311 2714.998584 C 2287.090311 2704.179899 2288.292387 2693.361213 2288.693079 2682.542528 C 2289.895155 2656.096852 2291.497924 2629.651176 2290.69654 2602.804809 M 2065.507604 3150.150158 C 2063.504144 3148.547389 2069.915216 3147.746005 2072.319369 3146.543929 C 2103.974041 3128.112094 2132.423177 3106.074031 2158.868853 3080.42974 C 2208.95536 3032.346693 2252.230102 2963.427659 2265.853632 2894.107934 " stroke="#e2e38d" stroke-width="109.760002" stroke-opacity="1" stroke-miterlimit="10"/><g fill="#2f4c3a" fill-opacity="1"><g transform="translate(231.487925, 136.733831)"><g><path d="M 9.5 0 L 9.5 -58.796875 L 11.734375 -58.796875 L 11.765625 -53.109375 L 11.296875 -45.90625 L 11.828125 -45.90625 C 13.109375 -49.039062 15.023438 -51.367188 17.578125 -52.890625 C 20.128906 -54.410156 23.066406 -55.171875 26.390625 -55.171875 C 27.253906 -55.171875 28.25 -55.148438 29.375 -55.109375 C 30.5 -55.066406 31.273438 -55.023438 31.703125 -54.984375 L 31.703125 -53.046875 C 31.148438 -53.085938 30.269531 -53.125 29.0625 -53.15625 C 27.863281 -53.195312 26.816406 -53.21875 25.921875 -53.21875 C 23.015625 -53.21875 20.503906 -52.628906 18.390625 -51.453125 C 16.285156 -50.273438 14.660156 -48.742188 13.515625 -46.859375 C 12.378906 -44.984375 11.8125 -42.992188 11.8125 -40.890625 L 11.8125 0 Z M 5.015625 0 L 5.015625 -58.796875 L 7.28125 -58.796875 L 7.28125 0 Z M 14.015625 0 L 14.015625 -41.0625 C 14.015625 -44.21875 15.09375 -46.671875 17.25 -48.421875 C 19.40625 -50.179688 21.976562 -51.0625 24.96875 -51.0625 C 26.039062 -51.0625 27.195312 -51.0625 28.4375 -51.0625 C 29.6875 -51.0625 30.773438 -51.050781 31.703125 -51.03125 L 31.703125 -49.078125 C 30.785156 -49.109375 29.6875 -49.125 28.40625 -49.125 C 27.125 -49.125 25.976562 -49.125 24.96875 -49.125 C 22.613281 -49.125 20.585938 -48.492188 18.890625 -47.234375 C 17.203125 -45.972656 16.359375 -43.988281 16.359375 -41.28125 L 16.359375 0 Z M 12.859375 -50.609375 L 13.984375 -56.6875 L 13.984375 -58.796875 L 16.21875 -58.796875 L 16.25 -58.140625 L 14.796875 -54.25 L 15.21875 -54.25 C 16.46875 -55.84375 18.253906 -57.039062 20.578125 -57.84375 C 22.910156 -58.65625 25.195312 -59.0625 27.4375 -59.0625 C 27.988281 -59.0625 28.6875 -59.046875 29.53125 -59.015625 C 30.375 -58.984375 31.097656 -58.9375 31.703125 -58.875 L 31.703125 -56.9375 C 31.210938 -56.988281 30.566406 -57.035156 29.765625 -57.078125 C 28.960938 -57.117188 28.21875 -57.140625 27.53125 -57.140625 C 24.476562 -57.140625 21.722656 -56.625 19.265625 -55.59375 C 16.804688 -54.5625 14.835938 -52.898438 13.359375 -50.609375 Z M 12.859375 -50.609375 "/></g></g></g><g fill="#2f4c3a" fill-opacity="1"><g transform="translate(259.734565, 136.733831)"><g><path d="M 22.265625 0.859375 C 15.992188 0.859375 11.503906 -0.46875 8.796875 -3.125 C 6.085938 -5.789062 4.578125 -10.039062 4.265625 -15.875 C 4.117188 -18.925781 4.007812 -21.90625 3.9375 -24.8125 C 3.875 -27.71875 3.867188 -30.65625 3.921875 -33.625 C 3.984375 -36.601562 4.097656 -39.71875 4.265625 -42.96875 C 4.585938 -49 6.171875 -53.285156 9.015625 -55.828125 C 11.859375 -58.378906 16.273438 -59.65625 22.265625 -59.65625 C 28.378906 -59.65625 32.816406 -58.359375 35.578125 -55.765625 C 38.347656 -53.179688 39.890625 -48.910156 40.203125 -42.953125 C 40.429688 -38.359375 40.550781 -33.851562 40.5625 -29.4375 C 40.582031 -25.03125 40.460938 -20.507812 40.203125 -15.875 C 39.859375 -9.832031 38.273438 -5.53125 35.453125 -2.96875 C 32.640625 -0.414062 28.242188 0.859375 22.265625 0.859375 Z M 22.265625 -0.9375 C 27.609375 -0.9375 31.484375 -2.113281 33.890625 -4.46875 C 36.304688 -6.832031 37.660156 -10.675781 37.953125 -16 C 38.210938 -20.539062 38.335938 -24.9375 38.328125 -29.1875 C 38.316406 -33.445312 38.191406 -37.992188 37.953125 -42.828125 C 37.691406 -48.117188 36.363281 -51.945312 33.96875 -54.3125 C 31.570312 -56.6875 27.671875 -57.875 22.265625 -57.875 C 16.929688 -57.875 13.046875 -56.707031 10.609375 -54.375 C 8.171875 -52.050781 6.800781 -48.203125 6.5 -42.828125 C 6.3125 -39.347656 6.195312 -36.132812 6.15625 -33.1875 C 6.113281 -30.238281 6.125 -27.378906 6.1875 -24.609375 C 6.257812 -21.835938 6.363281 -18.96875 6.5 -16 C 6.769531 -10.707031 8.101562 -6.875 10.5 -4.5 C 12.90625 -2.125 16.828125 -0.9375 22.265625 -0.9375 Z M 22.265625 -2.75 C 17.546875 -2.75 14.171875 -3.816406 12.140625 -5.953125 C 10.117188 -8.085938 8.976562 -11.492188 8.71875 -16.171875 C 8.570312 -19.242188 8.46875 -22.195312 8.40625 -25.03125 C 8.351562 -27.863281 8.351562 -30.71875 8.40625 -33.59375 C 8.46875 -36.46875 8.582031 -39.503906 8.75 -42.703125 C 9.007812 -47.523438 10.195312 -50.957031 12.3125 -53 C 14.425781 -55.039062 17.742188 -56.0625 22.265625 -56.0625 C 26.859375 -56.0625 30.1875 -55.019531 32.25 -52.9375 C 34.320312 -50.851562 35.476562 -47.457031 35.71875 -42.75 C 35.882812 -39.488281 35.988281 -36.421875 36.03125 -33.546875 C 36.082031 -30.671875 36.082031 -27.828125 36.03125 -25.015625 C 35.988281 -22.203125 35.882812 -19.238281 35.71875 -16.125 C 35.457031 -11.4375 34.300781 -8.035156 32.25 -5.921875 C 30.195312 -3.804688 26.867188 -2.75 22.265625 -2.75 Z M 22.265625 -4.53125 C 26.054688 -4.53125 28.8125 -5.441406 30.53125 -7.265625 C 32.257812 -9.085938 33.242188 -12.113281 33.484375 -16.34375 C 33.710938 -20.601562 33.832031 -24.796875 33.84375 -28.921875 C 33.851562 -33.046875 33.734375 -37.582031 33.484375 -42.53125 C 33.273438 -46.789062 32.285156 -49.8125 30.515625 -51.59375 C 28.742188 -53.375 25.992188 -54.265625 22.265625 -54.265625 C 18.347656 -54.265625 15.539062 -53.320312 13.84375 -51.4375 C 12.15625 -49.5625 11.195312 -46.582031 10.96875 -42.5 C 10.820312 -39.59375 10.71875 -36.742188 10.65625 -33.953125 C 10.601562 -31.160156 10.601562 -28.316406 10.65625 -25.421875 C 10.707031 -22.535156 10.8125 -19.476562 10.96875 -16.25 C 11.195312 -12.082031 12.179688 -9.085938 13.921875 -7.265625 C 15.660156 -5.441406 18.441406 -4.53125 22.265625 -4.53125 Z M 22.265625 -6.328125 C 19.234375 -6.328125 17.015625 -7.097656 15.609375 -8.640625 C 14.203125 -10.191406 13.410156 -12.75 13.234375 -16.3125 C 13.085938 -19.414062 12.976562 -22.375 12.90625 -25.1875 C 12.84375 -28 12.835938 -30.8125 12.890625 -33.625 C 12.953125 -36.445312 13.066406 -39.382812 13.234375 -42.4375 C 13.429688 -46.070312 14.242188 -48.65625 15.671875 -50.1875 C 17.097656 -51.71875 19.296875 -52.484375 22.265625 -52.484375 C 25.285156 -52.484375 27.488281 -51.707031 28.875 -50.15625 C 30.269531 -48.601562 31.054688 -46.035156 31.234375 -42.453125 C 31.484375 -37.460938 31.601562 -32.921875 31.59375 -28.828125 C 31.582031 -24.734375 31.460938 -20.597656 31.234375 -16.421875 C 31.035156 -12.828125 30.242188 -10.242188 28.859375 -8.671875 C 27.472656 -7.109375 25.273438 -6.328125 22.265625 -6.328125 Z M 22.265625 -8.140625 C 24.523438 -8.140625 26.171875 -8.789062 27.203125 -10.09375 C 28.242188 -11.394531 28.847656 -13.535156 29.015625 -16.515625 C 29.203125 -20.628906 29.304688 -24.675781 29.328125 -28.65625 C 29.359375 -32.644531 29.253906 -37.210938 29.015625 -42.359375 C 28.859375 -45.265625 28.265625 -47.375 27.234375 -48.6875 C 26.210938 -50.007812 24.554688 -50.671875 22.265625 -50.671875 C 19.921875 -50.671875 18.238281 -49.992188 17.21875 -48.640625 C 16.207031 -47.296875 15.617188 -45.191406 15.453125 -42.328125 C 15.304688 -39.179688 15.203125 -36.234375 15.140625 -33.484375 C 15.085938 -30.742188 15.085938 -28 15.140625 -25.25 C 15.203125 -22.507812 15.304688 -19.566406 15.453125 -16.421875 C 15.617188 -13.546875 16.21875 -11.445312 17.25 -10.125 C 18.289062 -8.800781 19.960938 -8.140625 22.265625 -8.140625 Z M 22.265625 -8.140625 "/></g></g></g></svg>